<svg width="206" height="36" viewBox="0 0 206 36" fill="none" xmlns="http://www.w3.org/2000/svg">
<g clip-path="url(#clip0)">
<path d="M18.75 0H9.75V9H18.75V0Z" fill="white"/>
<path d="M0.75 9H9.75V18H0.75V9Z" fill="white"/>
<path d="M18.75 18H9.75V27H18.75V18Z" fill="white"/>
<path d="M9.75 27H0.75V36H9.75V27Z" fill="white"/>
</g>
<path d="M38.49 29V8.21H51.63V11.42H42.27V16.73H50.58V19.94H42.27V29H38.49ZM67.6296 28.52C66.9296 28.7 66.0196 28.88 64.8996 29.06C63.7796 29.26 62.5496 29.36 61.2096 29.36C59.9496 29.36 58.8896 29.18 58.0296 28.82C57.1896 28.46 56.5096 27.96 55.9896 27.32C55.4896 26.68 55.1296 25.92 54.9096 25.04C54.6896 24.14 54.5796 23.16 54.5796 22.1V13.31H58.2096V21.53C58.2096 23.21 58.4496 24.41 58.9296 25.13C59.4296 25.85 60.2896 26.21 61.5096 26.21C61.9496 26.21 62.4096 26.19 62.8896 26.15C63.3896 26.11 63.7596 26.06 63.9996 26V13.31H67.6296V28.52ZM72.6698 9.17L76.2998 8.57V13.31H81.8798V16.34H76.2998V22.73C76.2998 23.99 76.4998 24.89 76.8998 25.43C77.2998 25.97 77.9798 26.24 78.9398 26.24C79.5998 26.24 80.1798 26.17 80.6798 26.03C81.1998 25.89 81.6098 25.76 81.9098 25.64L82.5098 28.52C82.0898 28.7 81.5398 28.88 80.8598 29.06C80.1798 29.26 79.3798 29.36 78.4598 29.36C77.3398 29.36 76.3998 29.21 75.6398 28.91C74.8998 28.61 74.3098 28.18 73.8698 27.62C73.4298 27.04 73.1198 26.35 72.9398 25.55C72.7598 24.73 72.6698 23.8 72.6698 22.76V9.17ZM98.8589 28.52C98.1589 28.7 97.2489 28.88 96.1289 29.06C95.0089 29.26 93.7789 29.36 92.4389 29.36C91.1789 29.36 90.1189 29.18 89.2589 28.82C88.4189 28.46 87.7389 27.96 87.2189 27.32C86.7189 26.68 86.3589 25.92 86.1389 25.04C85.9189 24.14 85.8089 23.16 85.8089 22.1V13.31H89.4389V21.53C89.4389 23.21 89.6789 24.41 90.1589 25.13C90.6589 25.85 91.5189 26.21 92.7389 26.21C93.1789 26.21 93.6389 26.19 94.1189 26.15C94.6189 26.11 94.9889 26.06 95.2289 26V13.31H98.8589V28.52ZM113.019 16.58C112.719 16.48 112.299 16.38 111.759 16.28C111.239 16.16 110.629 16.1 109.929 16.1C109.529 16.1 109.099 16.14 108.639 16.22C108.199 16.3 107.889 16.37 107.709 16.43V29H104.079V14.06C104.779 13.8 105.649 13.56 106.689 13.34C107.749 13.1 108.919 12.98 110.199 12.98C110.439 12.98 110.719 13 111.039 13.04C111.359 13.06 111.679 13.1 111.999 13.16C112.319 13.2 112.629 13.26 112.929 13.34C113.229 13.4 113.469 13.46 113.649 13.52L113.019 16.58ZM115.909 21.23C115.909 19.85 116.109 18.64 116.509 17.6C116.929 16.56 117.479 15.7 118.159 15.02C118.839 14.32 119.619 13.8 120.499 13.46C121.379 13.1 122.279 12.92 123.199 12.92C125.359 12.92 127.039 13.59 128.239 14.93C129.459 16.27 130.069 18.27 130.069 20.93C130.069 21.13 130.059 21.36 130.039 21.62C130.039 21.86 130.029 22.08 130.009 22.28H119.659C119.759 23.54 120.199 24.52 120.979 25.22C121.779 25.9 122.929 26.24 124.429 26.24C125.309 26.24 126.109 26.16 126.829 26C127.569 25.84 128.149 25.67 128.569 25.49L129.049 28.46C128.849 28.56 128.569 28.67 128.209 28.79C127.869 28.89 127.469 28.98 127.009 29.06C126.569 29.16 126.089 29.24 125.569 29.3C125.049 29.36 124.519 29.39 123.979 29.39C122.599 29.39 121.399 29.19 120.379 28.79C119.359 28.37 118.519 27.8 117.859 27.08C117.199 26.34 116.709 25.48 116.389 24.5C116.069 23.5 115.909 22.41 115.909 21.23ZM126.439 19.61C126.439 19.11 126.369 18.64 126.229 18.2C126.089 17.74 125.879 17.35 125.599 17.03C125.339 16.69 125.009 16.43 124.609 16.25C124.229 16.05 123.769 15.95 123.229 15.95C122.669 15.95 122.179 16.06 121.759 16.28C121.339 16.48 120.979 16.75 120.679 17.09C120.399 17.43 120.179 17.82 120.019 18.26C119.859 18.7 119.749 19.15 119.689 19.61H126.439ZM138.447 26.39C139.407 26.39 140.107 26.28 140.547 26.06C140.987 25.82 141.207 25.42 141.207 24.86C141.207 24.34 140.967 23.91 140.487 23.57C140.027 23.23 139.257 22.86 138.177 22.46C137.517 22.22 136.907 21.97 136.347 21.71C135.807 21.43 135.337 21.11 134.937 20.75C134.537 20.39 134.217 19.96 133.977 19.46C133.757 18.94 133.647 18.31 133.647 17.57C133.647 16.13 134.177 15 135.237 14.18C136.297 13.34 137.737 12.92 139.557 12.92C140.477 12.92 141.357 13.01 142.197 13.19C143.037 13.35 143.667 13.51 144.087 13.67L143.427 16.61C143.027 16.43 142.517 16.27 141.897 16.13C141.277 15.97 140.557 15.89 139.737 15.89C138.997 15.89 138.397 16.02 137.937 16.28C137.477 16.52 137.247 16.9 137.247 17.42C137.247 17.68 137.287 17.91 137.367 18.11C137.467 18.31 137.627 18.5 137.847 18.68C138.067 18.84 138.357 19.01 138.717 19.19C139.077 19.35 139.517 19.52 140.037 19.7C140.897 20.02 141.627 20.34 142.227 20.66C142.827 20.96 143.317 21.31 143.697 21.71C144.097 22.09 144.387 22.53 144.567 23.03C144.747 23.53 144.837 24.13 144.837 24.83C144.837 26.33 144.277 27.47 143.157 28.25C142.057 29.01 140.477 29.39 138.417 29.39C137.037 29.39 135.927 29.27 135.087 29.03C134.247 28.81 133.657 28.63 133.317 28.49L133.947 25.46C134.487 25.68 135.127 25.89 135.867 26.09C136.627 26.29 137.487 26.39 138.447 26.39ZM158.188 19.13C157.728 20.89 157.228 22.61 156.688 24.29C156.168 25.95 155.648 27.52 155.128 29H152.158C151.758 28.08 151.338 27.03 150.898 25.85C150.458 24.67 150.018 23.41 149.578 22.07C149.138 20.73 148.698 19.32 148.258 17.84C147.818 16.36 147.388 14.85 146.968 13.31H150.808C150.988 14.15 151.198 15.06 151.438 16.04C151.678 17 151.928 17.99 152.188 19.01C152.448 20.01 152.718 20.99 152.998 21.95C153.278 22.91 153.558 23.79 153.838 24.59C154.138 23.67 154.428 22.72 154.708 21.74C155.008 20.76 155.288 19.78 155.548 18.8C155.808 17.82 156.048 16.87 156.268 15.95C156.508 15.01 156.718 14.13 156.898 13.31H159.688C159.868 14.13 160.068 15.01 160.288 15.95C160.508 16.87 160.738 17.82 160.978 18.8C161.238 19.78 161.508 20.76 161.788 21.74C162.088 22.72 162.388 23.67 162.688 24.59C162.948 23.79 163.218 22.91 163.498 21.95C163.778 20.99 164.048 20.01 164.308 19.01C164.588 17.99 164.848 17 165.088 16.04C165.328 15.06 165.538 14.15 165.718 13.31H169.468C169.048 14.85 168.618 16.36 168.178 17.84C167.738 19.32 167.298 20.73 166.858 22.07C166.418 23.41 165.978 24.67 165.538 25.85C165.098 27.03 164.668 28.08 164.248 29H161.308C160.788 27.52 160.248 25.95 159.688 24.29C159.148 22.61 158.648 20.89 158.188 19.13ZM178.357 26.45C179.477 26.45 180.327 26.39 180.907 26.27V22.25C180.707 22.19 180.417 22.13 180.037 22.07C179.657 22.01 179.237 21.98 178.777 21.98C178.377 21.98 177.967 22.01 177.547 22.07C177.147 22.13 176.777 22.24 176.437 22.4C176.117 22.56 175.857 22.79 175.657 23.09C175.457 23.37 175.357 23.73 175.357 24.17C175.357 25.03 175.627 25.63 176.167 25.97C176.707 26.29 177.437 26.45 178.357 26.45ZM178.057 12.92C179.257 12.92 180.267 13.07 181.087 13.37C181.907 13.67 182.557 14.09 183.037 14.63C183.537 15.17 183.887 15.83 184.087 16.61C184.307 17.37 184.417 18.21 184.417 19.13V28.64C183.857 28.76 183.007 28.9 181.867 29.06C180.747 29.24 179.477 29.33 178.057 29.33C177.117 29.33 176.257 29.24 175.477 29.06C174.697 28.88 174.027 28.59 173.467 28.19C172.927 27.79 172.497 27.27 172.177 26.63C171.877 25.99 171.727 25.2 171.727 24.26C171.727 23.36 171.897 22.6 172.237 21.98C172.597 21.36 173.077 20.86 173.677 20.48C174.277 20.08 174.967 19.8 175.747 19.64C176.547 19.46 177.377 19.37 178.237 19.37C178.637 19.37 179.057 19.4 179.497 19.46C179.937 19.5 180.407 19.58 180.907 19.7V19.1C180.907 18.68 180.857 18.28 180.757 17.9C180.657 17.52 180.477 17.19 180.217 16.91C179.977 16.61 179.647 16.38 179.227 16.22C178.827 16.06 178.317 15.98 177.697 15.98C176.857 15.98 176.087 16.04 175.387 16.16C174.687 16.28 174.117 16.42 173.677 16.58L173.227 13.64C173.687 13.48 174.357 13.32 175.237 13.16C176.117 13 177.057 12.92 178.057 12.92ZM199.872 21.23C199.872 19.61 199.502 18.35 198.762 17.45C198.042 16.55 196.872 16.1 195.252 16.1C194.912 16.1 194.552 16.12 194.172 16.16C193.812 16.18 193.452 16.24 193.092 16.34V25.31C193.412 25.53 193.832 25.74 194.352 25.94C194.892 26.12 195.462 26.21 196.062 26.21C197.382 26.21 198.342 25.76 198.942 24.86C199.562 23.96 199.872 22.75 199.872 21.23ZM203.592 21.17C203.592 22.37 203.432 23.47 203.112 24.47C202.812 25.47 202.372 26.33 201.792 27.05C201.212 27.77 200.482 28.33 199.602 28.73C198.742 29.13 197.762 29.33 196.662 29.33C195.922 29.33 195.242 29.24 194.622 29.06C194.002 28.88 193.492 28.68 193.092 28.46V34.55H189.462V13.82C190.202 13.62 191.112 13.43 192.192 13.25C193.272 13.07 194.412 12.98 195.612 12.98C196.852 12.98 197.962 13.17 198.942 13.55C199.922 13.93 200.752 14.48 201.432 15.2C202.132 15.9 202.662 16.76 203.022 17.78C203.402 18.78 203.592 19.91 203.592 21.17Z" fill="white"/>
<defs>
<clipPath id="clip0">
<rect x="0.75" width="18" height="36" fill="white"/>
</clipPath>
</defs>
</svg>
